<svg width="18" height="11" viewBox="0 0 18 11" fill="none" xmlns="http://www.w3.org/2000/svg">
<path d="M12.3594 10.6094C12.1406 10.3906 12.1406 10.1719 12.3594 9.95312L16.0234 5.90625H0.4375C0.145833 5.90625 0 5.76042 0 5.46875C0 5.17708 0.145833 5.03125 0.4375 5.03125H16.0234L12.3594 0.984375C12.1406 0.765625 12.1406 0.546875 12.3594 0.328125C12.5781 0.109375 12.7969 0.109375 13.0156 0.328125C15.8958 3.5 17.3542 5.10417 17.3906 5.14062C17.4635 5.21354 17.5 5.32292 17.5 5.46875C17.5 5.61458 17.4635 5.72396 17.3906 5.79688L13.0156 10.6094C12.9427 10.6823 12.8333 10.7188 12.6875 10.7188C12.5417 10.7188 12.4323 10.6823 12.3594 10.6094Z" fill="black"/>
</svg>
