<svg width="14" height="10" viewBox="0 0 14 10" fill="none" xmlns="http://www.w3.org/2000/svg">
<path d="M13.8633 2.11914C13.8633 2.11914 13.8223 1.94141 13.7402 1.58594C13.6582 1.23047 13.5124 0.947917 13.3027 0.738281C13.0384 0.455729 12.7695 0.291667 12.4961 0.246094C12.2318 0.191406 12.0312 0.154948 11.8945 0.136719C11.4115 0.10026 10.8828 0.0729167 10.3086 0.0546875C9.73438 0.0364583 9.20117 0.0227865 8.70898 0.0136719C8.22591 0.00455729 7.82031 0 7.49219 0C7.16406 0 7 0 7 0C7 0 6.83594 0 6.50781 0C6.17969 0 5.76953 0.00455729 5.27734 0.0136719C4.79427 0.0227865 4.26562 0.0364583 3.69141 0.0546875C3.11719 0.0729167 2.58854 0.10026 2.10547 0.136719C1.96875 0.154948 1.76367 0.191406 1.49023 0.246094C1.22591 0.291667 0.961589 0.455729 0.697266 0.738281C0.48763 0.947917 0.341797 1.23047 0.259766 1.58594C0.177734 1.94141 0.136719 2.11914 0.136719 2.11914C0.136719 2.11914 0.113932 2.35612 0.0683594 2.83008C0.0227865 3.30404 0 3.82357 0 4.38867V5.45508C0 6.02018 0.0227865 6.53971 0.0683594 7.01367C0.113932 7.47852 0.136719 7.71094 0.136719 7.71094C0.136719 7.71094 0.177734 7.89323 0.259766 8.25781C0.341797 8.61328 0.48763 8.89583 0.697266 9.10547C0.961589 9.38802 1.24414 9.55208 1.54492 9.59766C1.85482 9.64323 2.08724 9.67969 2.24219 9.70703C2.52474 9.73438 2.93034 9.75716 3.45898 9.77539C3.98763 9.79362 4.51172 9.80729 5.03125 9.81641C5.5599 9.82552 6.02018 9.83464 6.41211 9.84375C6.80404 9.84375 7 9.84375 7 9.84375C7 9.84375 7.16406 9.84375 7.49219 9.84375C7.82031 9.84375 8.22591 9.83919 8.70898 9.83008C9.20117 9.81185 9.73438 9.79362 10.3086 9.77539C10.8828 9.75716 11.416 9.72982 11.9082 9.69336C12.0449 9.68424 12.2454 9.6569 12.5098 9.61133C12.7741 9.55664 13.0384 9.38802 13.3027 9.10547C13.5124 8.89583 13.6582 8.61328 13.7402 8.25781C13.8223 7.89323 13.8633 7.71094 13.8633 7.71094C13.8633 7.71094 13.8861 7.47852 13.9316 7.01367C13.9772 6.53971 14 6.02018 14 5.45508V4.38867C14 3.82357 13.9772 3.30404 13.9316 2.83008C13.8861 2.35612 13.8633 2.11914 13.8633 2.11914ZM5.55078 6.74023V2.80273L9.33789 4.77148L5.55078 6.74023Z" fill="#A5A5A5"/>
</svg>
