<svg width="14" height="14" viewBox="0 0 14 14" fill="none" xmlns="http://www.w3.org/2000/svg">
<path d="M12.6875 0H1.3125C0.947917 0 0.638021 0.127604 0.382812 0.382812C0.127604 0.638021 0 0.947917 0 1.3125V12.6875C0 13.0521 0.127604 13.362 0.382812 13.6172C0.638021 13.8724 0.947917 14 1.3125 14H12.6875C13.0521 14 13.362 13.8724 13.6172 13.6172C13.8724 13.362 14 13.0521 14 12.6875V1.3125C14 0.947917 13.8724 0.638021 13.6172 0.382812C13.362 0.127604 13.0521 0 12.6875 0ZM9.625 2.1875C9.625 2.06901 9.66602 1.96875 9.74805 1.88672C9.83919 1.79557 9.94401 1.75 10.0625 1.75H11.8125C11.931 1.75 12.0312 1.79557 12.1133 1.88672C12.2044 1.96875 12.25 2.06901 12.25 2.1875V3.9375C12.25 4.05599 12.2044 4.16081 12.1133 4.25195C12.0312 4.33398 11.931 4.375 11.8125 4.375H10.0625C9.94401 4.375 9.83919 4.33398 9.74805 4.25195C9.66602 4.16081 9.625 4.05599 9.625 3.9375V2.1875ZM7 4.375C7.72005 4.375 8.33529 4.63021 8.8457 5.14062C9.36523 5.65104 9.625 6.27083 9.625 7C9.625 7.72005 9.36979 8.33984 8.85938 8.85938C8.34896 9.36979 7.72917 9.625 7 9.625C6.27995 9.625 5.66016 9.36979 5.14062 8.85938C4.63021 8.34896 4.375 7.72917 4.375 7C4.375 6.27995 4.63021 5.66471 5.14062 5.1543C5.65104 4.63477 6.27083 4.375 7 4.375ZM12.25 11.8125C12.25 11.931 12.2044 12.0358 12.1133 12.127C12.0312 12.209 11.931 12.25 11.8125 12.25H2.1875C2.06901 12.25 1.96419 12.209 1.87305 12.127C1.79102 12.0358 1.75 11.931 1.75 11.8125V6.125H2.70703C2.67969 6.26172 2.6569 6.40299 2.63867 6.54883C2.62956 6.69466 2.625 6.84505 2.625 7C2.625 7.60156 2.73893 8.17122 2.9668 8.70898C3.19466 9.23763 3.50456 9.70247 3.89648 10.1035C4.29753 10.4954 4.76237 10.8053 5.29102 11.0332C5.82878 11.2611 6.39844 11.375 7 11.375C7.60156 11.375 8.16667 11.2611 8.69531 11.0332C9.23307 10.8053 9.69792 10.4954 10.0898 10.1035C10.4909 9.70247 10.8053 9.23763 11.0332 8.70898C11.2611 8.17122 11.375 7.60156 11.375 7C11.375 6.85417 11.3659 6.70833 11.3477 6.5625C11.3385 6.40755 11.3203 6.26172 11.293 6.125H12.25V11.8125Z" fill="#A5A5A5"/>
</svg>
