<svg width="9" height="14" viewBox="0 0 9 14" fill="none" xmlns="http://www.w3.org/2000/svg">
<path d="M1.3125 1.3125C2.1875 0.4375 3.25 0 4.5 0C5.75 0 6.8125 0.4375 7.6875 1.3125C8.5625 2.1875 9 3.25 9 4.5C9 5.54167 8.625 6.85417 7.875 8.4375C7.125 10.0208 6.375 11.3438 5.625 12.4062L4.5 14C4.16667 13.5417 3.75 12.9583 3.25 12.25C2.75 11.5208 2.08333 10.3125 1.25 8.625C0.416667 6.91667 0 5.54167 0 4.5C0 3.25 0.4375 2.1875 1.3125 1.3125ZM3.4375 5.5625C3.72917 5.83333 4.08333 5.96875 4.5 5.96875C4.91667 5.96875 5.26042 5.83333 5.53125 5.5625C5.82292 5.27083 5.96875 4.91667 5.96875 4.5C5.96875 4.08333 5.82292 3.73958 5.53125 3.46875C5.26042 3.17708 4.91667 3.03125 4.5 3.03125C4.08333 3.03125 3.72917 3.17708 3.4375 3.46875C3.16667 3.73958 3.03125 4.08333 3.03125 4.5C3.03125 4.91667 3.16667 5.27083 3.4375 5.5625Z" fill="#686767"/>
</svg>
