<svg width="14" height="11" viewBox="0 0 14 11" fill="none" xmlns="http://www.w3.org/2000/svg">
<path d="M12.6562 0C13.0104 0 13.3229 0.135417 13.5938 0.40625C13.8646 0.677083 14 0.989583 14 1.34375V9.65625C14 10.0104 13.8646 10.3229 13.5938 10.5938C13.3229 10.8646 13.0104 11 12.6562 11H1.34375C0.989583 11 0.677083 10.8646 0.40625 10.5938C0.135417 10.3229 0 10.0104 0 9.65625V1.34375C0 0.989583 0.135417 0.677083 0.40625 0.40625C0.677083 0.135417 0.989583 0 1.34375 0H12.6562ZM12.5 2.84375V1.5L7 5.15625L1.5 1.5V2.84375L7 6.5L12.5 2.84375Z" fill="#686767"/>
</svg>
