<svg width="12" height="11" viewBox="0 0 12 11" fill="none" xmlns="http://www.w3.org/2000/svg">
<path d="M10.75 8C11.375 8.625 11.375 9.3125 10.75 10.0625C10.5 10.3542 10.25 10.5729 10 10.7188C9.77083 10.8646 9.57292 10.9479 9.40625 10.9688C9.26042 10.9896 9.04167 11 8.75 11C7.9375 11 6.96875 10.5833 5.84375 9.75C4.94792 9.10417 4.13542 8.40625 3.40625 7.65625C2.46875 6.67708 1.64583 5.5625 0.9375 4.3125C0.3125 3.14583 0.125 2.1875 0.375 1.4375C0.5 1.04167 0.791667 0.697917 1.25 0.40625L1.28125 0.375C1.65625 0.125 1.98958 0 2.28125 0C2.67708 0 3.03125 0.1875 3.34375 0.5625L3.375 0.59375C3.85417 1.21875 4.1875 1.70833 4.375 2.0625C4.6875 2.70833 4.67708 3.26042 4.34375 3.71875C4.09375 4.05208 3.96875 4.29167 3.96875 4.4375C3.96875 4.5 4.10417 4.6875 4.375 5L4.40625 5.03125C4.90625 5.59375 5.17708 5.89583 5.21875 5.9375C5.23958 5.9375 5.26042 5.94792 5.28125 5.96875C5.30208 5.98958 5.32292 6.01042 5.34375 6.03125L5.40625 6.09375C5.82292 6.51042 6.125 6.80208 6.3125 6.96875L6.34375 7C6.53125 7.16667 6.65625 7.25 6.71875 7.25C6.82292 7.25 7.125 7.09375 7.625 6.78125C7.77083 6.67708 7.94792 6.625 8.15625 6.625C8.53125 6.625 8.97917 6.78125 9.5 7.09375C10.0417 7.40625 10.4583 7.70833 10.75 8Z" fill="#686767"/>
</svg>
