<svg width="17" height="17" viewBox="0 0 17 17" fill="none" xmlns="http://www.w3.org/2000/svg">
<path d="M15.5 13.6094L11.7188 10.3906C11.5208 10.2135 11.3177 10.0833 11.1094 10C10.9115 9.91667 10.7292 9.88021 10.5625 9.89062C11.0104 9.36979 11.3594 8.77604 11.6094 8.10938C11.8698 7.44271 12 6.73958 12 6C12 5.16667 11.8438 4.39062 11.5312 3.67188C11.2188 2.94271 10.7865 2.30729 10.2344 1.76562C9.69271 1.21354 9.05729 0.78125 8.32812 0.46875C7.60938 0.15625 6.83333 0 6 0C5.16667 0 4.38542 0.15625 3.65625 0.46875C2.9375 0.78125 2.30208 1.21354 1.75 1.76562C1.20833 2.30729 0.78125 2.94271 0.46875 3.67188C0.15625 4.39062 0 5.16667 0 6C0 6.83333 0.15625 7.61458 0.46875 8.34375C0.78125 9.0625 1.20833 9.69792 1.75 10.25C2.30208 10.7917 2.9375 11.2188 3.65625 11.5312C4.38542 11.8438 5.16667 12 6 12C6.73958 12 7.44271 11.875 8.10938 11.625C8.77604 11.3646 9.36979 11.0104 9.89062 10.5625C9.88021 10.7292 9.91667 10.9167 10 11.125C10.0833 11.3229 10.2135 11.5208 10.3906 11.7188L13.6094 15.5C13.8906 15.8125 14.224 15.9792 14.6094 16C15.0052 16.0208 15.3438 15.8958 15.625 15.625C15.8958 15.3438 16.0208 15.0104 16 14.625C15.9792 14.2292 15.8125 13.8906 15.5 13.6094ZM6 10C5.44792 10 4.92708 9.89583 4.4375 9.6875C3.95833 9.47917 3.53646 9.19271 3.17188 8.82812C2.80729 8.46354 2.52083 8.04167 2.3125 7.5625C2.10417 7.07292 2 6.55208 2 6C2 5.44792 2.10417 4.93229 2.3125 4.45312C2.52083 3.96354 2.80729 3.53646 3.17188 3.17188C3.53646 2.80729 3.95833 2.52083 4.4375 2.3125C4.92708 2.10417 5.44792 2 6 2C6.55208 2 7.06771 2.10417 7.54688 2.3125C8.03646 2.52083 8.46354 2.80729 8.82812 3.17188C9.19271 3.53646 9.47917 3.96354 9.6875 4.45312C9.89583 4.93229 10 5.44792 10 6C10 6.55208 9.89583 7.07292 9.6875 7.5625C9.47917 8.04167 9.19271 8.46354 8.82812 8.82812C8.46354 9.19271 8.03646 9.47917 7.54688 9.6875C7.06771 9.89583 6.55208 10 6 10Z" fill="#FFFDFA"/>
</svg>
