<svg width="14" height="12" viewBox="0 0 14 12" fill="none" xmlns="http://www.w3.org/2000/svg">
<path d="M14 1.33984C13.7448 1.45833 13.4759 1.55859 13.1934 1.64062C12.9199 1.71354 12.6374 1.76367 12.3457 1.79102C12.6465 1.61784 12.9062 1.39453 13.125 1.12109C13.3438 0.847656 13.5078 0.542318 13.6172 0.205078C13.3346 0.369141 13.0384 0.510417 12.7285 0.628906C12.4277 0.747396 12.1133 0.838542 11.7852 0.902344C11.5299 0.628906 11.2201 0.410156 10.8555 0.246094C10.4909 0.0820312 10.1035 0 9.69336 0C9.30143 0 8.92773 0.077474 8.57227 0.232422C8.22591 0.378255 7.92057 0.583333 7.65625 0.847656C7.40104 1.10286 7.19596 1.40365 7.04102 1.75C6.89518 2.09635 6.82227 2.47005 6.82227 2.87109C6.82227 2.98047 6.82682 3.08984 6.83594 3.19922C6.85417 3.30859 6.8724 3.41797 6.89062 3.52734C6.29818 3.5 5.7194 3.40885 5.1543 3.25391C4.59831 3.09896 4.06966 2.89388 3.56836 2.63867C3.06706 2.37435 2.59766 2.06445 2.16016 1.70898C1.72266 1.35352 1.32617 0.957031 0.970703 0.519531C0.852214 0.729167 0.75651 0.957031 0.683594 1.20312C0.619792 1.44922 0.587891 1.70443 0.587891 1.96875C0.587891 2.46094 0.701823 2.91667 0.929688 3.33594C1.16667 3.75521 1.47656 4.09701 1.85938 4.36133C1.63151 4.35221 1.40365 4.31576 1.17578 4.25195C0.957031 4.18815 0.751953 4.10156 0.560547 3.99219C0.560547 4.0013 0.560547 4.01042 0.560547 4.01953C0.560547 4.01953 0.560547 4.02409 0.560547 4.0332C0.560547 4.72591 0.779297 5.33659 1.2168 5.86523C1.66341 6.39388 2.21484 6.72201 2.87109 6.84961C2.7526 6.88607 2.62956 6.91341 2.50195 6.93164C2.37435 6.94076 2.24219 6.94531 2.10547 6.94531C2.01432 6.94531 1.92318 6.94076 1.83203 6.93164C1.75 6.92253 1.66341 6.91341 1.57227 6.9043C1.75456 7.4694 2.08724 7.9388 2.57031 8.3125C3.0625 8.6862 3.62305 8.88216 4.25195 8.90039C3.75977 9.2832 3.20833 9.58398 2.59766 9.80273C1.99609 10.0215 1.35807 10.1309 0.683594 10.1309C0.565104 10.1309 0.446615 10.1263 0.328125 10.1172C0.21875 10.1081 0.109375 10.099 0 10.0898C0.31901 10.2904 0.651693 10.4727 0.998047 10.6367C1.3444 10.7917 1.69987 10.9238 2.06445 11.0332C2.43815 11.1426 2.82096 11.2292 3.21289 11.293C3.60482 11.3477 4.0013 11.375 4.40234 11.375C5.72396 11.375 6.89062 11.1289 7.90234 10.6367C8.92318 10.1354 9.77995 9.49284 10.4727 8.70898C11.1654 7.92513 11.6895 7.05013 12.0449 6.08398C12.4004 5.10872 12.5781 4.14714 12.5781 3.19922C12.5781 3.13542 12.5736 3.07617 12.5645 3.02148C12.5645 2.95768 12.5645 2.89388 12.5645 2.83008C12.847 2.62956 13.1068 2.40625 13.3438 2.16016C13.5898 1.90495 13.8086 1.63151 14 1.33984Z" fill="#A5A5A5"/>
</svg>
