<svg width="15" height="9" viewBox="0 0 15 9" fill="none" xmlns="http://www.w3.org/2000/svg">
<path d="M4.06055 0C4.27018 0 4.46615 0.00911458 4.64844 0.0273438C4.83984 0.0455729 5.01758 0.0729167 5.18164 0.109375C5.35482 0.145833 5.50977 0.195964 5.64648 0.259766C5.79232 0.314453 5.92904 0.382812 6.05664 0.464844C6.17513 0.546875 6.27995 0.642578 6.37109 0.751953C6.46224 0.861328 6.54427 0.984375 6.61719 1.12109C6.68099 1.25781 6.72656 1.41276 6.75391 1.58594C6.79036 1.75 6.80859 1.93229 6.80859 2.13281C6.80859 2.35156 6.78581 2.55208 6.74023 2.73438C6.69466 2.91667 6.62174 3.08073 6.52148 3.22656C6.42122 3.36328 6.29818 3.49089 6.15234 3.60938C6.00651 3.72786 5.83789 3.83724 5.64648 3.9375C5.91081 4.01042 6.13867 4.11523 6.33008 4.25195C6.5306 4.37956 6.69466 4.53906 6.82227 4.73047C6.95898 4.92188 7.05924 5.13607 7.12305 5.37305C7.18685 5.60091 7.21875 5.84701 7.21875 6.11133C7.21875 6.33008 7.19596 6.53516 7.15039 6.72656C7.10482 6.91797 7.04102 7.09115 6.95898 7.24609C6.87695 7.41016 6.77669 7.55599 6.6582 7.68359C6.54883 7.8112 6.42122 7.92513 6.27539 8.02539C6.13867 8.12565 5.98828 8.21224 5.82422 8.28516C5.66016 8.35807 5.48698 8.42188 5.30469 8.47656C5.1224 8.52214 4.93555 8.55859 4.74414 8.58594C4.56185 8.60417 4.37044 8.61328 4.16992 8.61328H0V0H4.06055ZM3.81445 3.48633C3.97852 3.48633 4.12891 3.4681 4.26562 3.43164C4.41146 3.38607 4.53906 3.32227 4.64844 3.24023C4.75781 3.1582 4.83984 3.05339 4.89453 2.92578C4.94922 2.79818 4.97656 2.64323 4.97656 2.46094C4.97656 2.36068 4.96745 2.26953 4.94922 2.1875C4.93099 2.10547 4.90365 2.03255 4.86719 1.96875C4.83073 1.90495 4.78516 1.85026 4.73047 1.80469C4.6849 1.75 4.63021 1.70443 4.56641 1.66797C4.51172 1.63151 4.44792 1.59961 4.375 1.57227C4.3112 1.54492 4.23828 1.52669 4.15625 1.51758C4.07422 1.49935 3.99219 1.48568 3.91016 1.47656C3.82812 1.46745 3.74609 1.46289 3.66406 1.46289H1.90039V3.48633H3.81445ZM3.92383 7.15039C4.01497 7.15039 4.10156 7.14583 4.18359 7.13672C4.27474 7.1276 4.36133 7.11393 4.44336 7.0957C4.53451 7.07747 4.61654 7.05469 4.68945 7.02734C4.76237 6.99089 4.83073 6.94987 4.89453 6.9043C4.95833 6.86784 5.01302 6.82227 5.05859 6.76758C5.11328 6.70378 5.16341 6.63542 5.20898 6.5625C5.24544 6.48958 5.27279 6.40755 5.29102 6.31641C5.30924 6.22526 5.31836 6.12044 5.31836 6.00195C5.31836 5.7832 5.28646 5.59635 5.22266 5.44141C5.15885 5.27734 5.06315 5.14974 4.93555 5.05859C4.81706 4.95833 4.67578 4.88542 4.51172 4.83984C4.34766 4.79427 4.16081 4.77148 3.95117 4.77148H1.90039V7.15039H3.92383ZM9.91211 7.12305C10.0397 7.24154 10.1947 7.33268 10.377 7.39648C10.5684 7.46029 10.7826 7.49219 11.0195 7.49219C11.1927 7.49219 11.3522 7.47396 11.498 7.4375C11.653 7.39193 11.7943 7.32357 11.9219 7.23242C12.0404 7.14128 12.1361 7.05013 12.209 6.95898C12.291 6.86784 12.3457 6.77669 12.373 6.68555H13.877C13.7585 7.05924 13.6081 7.38281 13.4258 7.65625C13.2435 7.92057 13.0247 8.13021 12.7695 8.28516C12.5234 8.44922 12.25 8.57227 11.9492 8.6543C11.6484 8.73633 11.3203 8.77734 10.9648 8.77734C10.7188 8.77734 10.4863 8.75911 10.2676 8.72266C10.0488 8.67708 9.83919 8.61784 9.63867 8.54492C9.43815 8.46289 9.2513 8.36719 9.07812 8.25781C8.91406 8.14844 8.76367 8.02083 8.62695 7.875C8.49023 7.72917 8.36719 7.56966 8.25781 7.39648C8.15755 7.22331 8.07096 7.03646 7.99805 6.83594C7.92513 6.63542 7.86589 6.42578 7.82031 6.20703C7.78385 5.97917 7.76562 5.74219 7.76562 5.49609C7.76562 5.26823 7.78385 5.04492 7.82031 4.82617C7.86589 4.60742 7.92513 4.39779 7.99805 4.19727C8.08008 3.99674 8.17122 3.8099 8.27148 3.63672C8.38086 3.46354 8.50846 3.30404 8.6543 3.1582C8.80013 3.01237 8.95508 2.88021 9.11914 2.76172C9.2832 2.64323 9.46549 2.54297 9.66602 2.46094C9.85742 2.37891 10.0625 2.3151 10.2812 2.26953C10.5 2.22396 10.7279 2.20117 10.9648 2.20117C11.2292 2.20117 11.4753 2.22852 11.7031 2.2832C11.9401 2.32878 12.1589 2.40625 12.3594 2.51562C12.5508 2.61589 12.7285 2.73438 12.8926 2.87109C13.0566 3.00781 13.2025 3.16276 13.3301 3.33594C13.4577 3.50911 13.5671 3.69596 13.6582 3.89648C13.7493 4.08789 13.8223 4.29753 13.877 4.52539C13.9316 4.74414 13.9681 4.97201 13.9863 5.20898C14.0046 5.43685 14.0091 5.66927 14 5.90625H9.48828C9.48828 6.15234 9.52474 6.38477 9.59766 6.60352C9.67969 6.82227 9.78451 6.99544 9.91211 7.12305ZM11.8809 3.8418C11.7806 3.73242 11.6439 3.65039 11.4707 3.5957C11.3066 3.5319 11.1198 3.5 10.9102 3.5C10.7734 3.5 10.6458 3.51367 10.5273 3.54102C10.418 3.55924 10.3177 3.59115 10.2266 3.63672C10.1445 3.68229 10.0671 3.73242 9.99414 3.78711C9.92122 3.8418 9.85742 3.9056 9.80273 3.97852C9.74805 4.04232 9.69792 4.11523 9.65234 4.19727C9.61589 4.27018 9.58854 4.3431 9.57031 4.41602C9.54297 4.48893 9.52018 4.56185 9.50195 4.63477C9.49284 4.70768 9.48828 4.77148 9.48828 4.82617H12.2773C12.2591 4.60742 12.2135 4.41602 12.1406 4.25195C12.0677 4.08789 11.9811 3.95117 11.8809 3.8418ZM9.13281 0.697266H12.6328V1.54492H9.13281V0.697266Z" fill="#A5A5A5"/>
</svg>
