<svg width="212" height="66" viewBox="0 0 212 66" fill="none" xmlns="http://www.w3.org/2000/svg">
<path d="M74.464 52C74.1653 52 73.904 51.888 73.68 51.664C73.456 51.44 73.344 51.1787 73.344 50.88L73.456 50.264L87.624 13.92C87.9227 13.1733 88.464 12.8 89.248 12.8H91.152C91.936 12.8 92.4773 13.1733 92.776 13.92L106.944 50.264L107.056 50.88C107.056 51.1787 106.944 51.44 106.72 51.664C106.496 51.888 106.235 52 105.936 52H104.816C104.48 52 104.2 51.9067 103.976 51.72C103.789 51.5333 103.659 51.3467 103.584 51.16L100.112 42.2H80.288L76.816 51.16C76.7413 51.3467 76.592 51.5333 76.368 51.72C76.1813 51.9067 75.92 52 75.584 52H74.464ZM81.632 38.84H98.768L90.2 16.776L81.632 38.84ZM114.918 52C114.545 52 114.246 51.888 114.022 51.664C113.798 51.44 113.686 51.1413 113.686 50.768V14.088C113.686 13.7147 113.798 13.416 114.022 13.192C114.246 12.9307 114.545 12.8 114.918 12.8H127.966C131.998 12.8 135.153 13.752 137.43 15.656C139.707 17.56 140.846 20.3787 140.846 24.112C140.846 27.0613 140.118 29.4507 138.662 31.28C137.206 33.072 135.115 34.2853 132.39 34.92L141.406 50.264C141.518 50.488 141.574 50.6933 141.574 50.88C141.574 51.1787 141.462 51.44 141.238 51.664C141.014 51.888 140.753 52 140.454 52H139.782C139.222 52 138.793 51.888 138.494 51.664C138.233 51.4027 137.953 51.0107 137.654 50.488L128.75 35.424H117.214V50.768C117.214 51.1413 117.083 51.44 116.822 51.664C116.598 51.888 116.299 52 115.926 52H114.918ZM127.686 32.064C130.934 32.064 133.342 31.4107 134.91 30.104C136.515 28.76 137.318 26.7627 137.318 24.112C137.318 21.4613 136.515 19.4827 134.91 18.176C133.342 16.832 130.934 16.16 127.686 16.16H117.214V32.064H127.686ZM162.778 52.56C157.925 52.56 154.285 51.1973 151.858 48.472C149.432 45.7093 148.125 42.0133 147.938 37.384C147.901 36.376 147.882 34.7333 147.882 32.456C147.882 30.1413 147.901 28.4613 147.938 27.416C148.125 22.7867 149.432 19.1093 151.858 16.384C154.285 13.6213 157.925 12.24 162.778 12.24C166.101 12.24 168.864 12.856 171.066 14.088C173.269 15.2827 174.893 16.8133 175.938 18.68C177.021 20.5093 177.618 22.3947 177.73 24.336V24.448C177.73 24.7467 177.618 24.9893 177.394 25.176C177.17 25.3627 176.89 25.456 176.554 25.456H175.434C174.762 25.456 174.352 25.064 174.202 24.28C173.493 21.1067 172.205 18.8667 170.338 17.56C168.472 16.2533 165.952 15.6 162.778 15.6C159.269 15.6 156.544 16.5893 154.602 18.568C152.661 20.5467 151.616 23.5893 151.466 27.696C151.429 28.704 151.41 30.2533 151.41 32.344C151.41 34.4347 151.429 36.0213 151.466 37.104C151.616 41.2107 152.661 44.2533 154.602 46.232C156.544 48.2107 159.269 49.2 162.778 49.2C165.952 49.2 168.472 48.5467 170.338 47.24C172.205 45.9333 173.493 43.6933 174.202 40.52C174.352 39.736 174.762 39.344 175.434 39.344H176.554C176.89 39.344 177.17 39.456 177.394 39.68C177.656 39.8667 177.768 40.128 177.73 40.464C177.618 42.4053 177.021 44.3093 175.938 46.176C174.893 48.0053 173.269 49.536 171.066 50.768C168.864 51.9627 166.101 52.56 162.778 52.56ZM195.783 52C195.409 52 195.111 51.888 194.887 51.664C194.663 51.44 194.551 51.1413 194.551 50.768V16.16H183.463C183.089 16.16 182.791 16.048 182.567 15.824C182.343 15.6 182.231 15.3013 182.231 14.928V14.088C182.231 13.7147 182.343 13.416 182.567 13.192C182.791 12.9307 183.089 12.8 183.463 12.8H209.111C209.521 12.8 209.839 12.912 210.063 13.136C210.287 13.36 210.399 13.6773 210.399 14.088V14.928C210.399 15.3013 210.268 15.6 210.007 15.824C209.783 16.048 209.484 16.16 209.111 16.16H198.079V50.768C198.079 51.1413 197.948 51.44 197.687 51.664C197.463 51.888 197.164 52 196.791 52H195.783Z" fill="#91795C"/>
<path d="M12.776 15L33.2497 47.476C17.1738 55.976 1.90638 35.7583 12.776 15Z" fill="#F0F0F0" stroke="#91795C" stroke-width="3"/>
<path d="M29.9081 13L40.2521 48.3539C22.7516 52.6483 13.9347 30.0557 29.9081 13Z" fill="#F0F0F0" stroke="#91795C" stroke-width="3"/>
<path d="M47.9987 12V50C29.1243 50 26.9038 25.1733 47.9987 12Z" fill="#F0F0F0" stroke="#91795C" stroke-width="3"/>
</svg>
