<svg width="41" height="54" viewBox="0 0 41 54" fill="none" xmlns="http://www.w3.org/2000/svg">
<path d="M5.56 49.7432C5.48533 49.7432 5.42 49.7152 5.364 49.6592C5.308 49.6032 5.28 49.5378 5.28 49.4632C5.28 49.4165 5.28467 49.3652 5.294 49.3092L8.766 40.2512C8.80333 40.1578 8.85467 40.0832 8.92 40.0272C8.98533 39.9712 9.08333 39.9432 9.214 39.9432H10.166C10.2873 39.9432 10.3807 39.9712 10.446 40.0272C10.5207 40.0832 10.5767 40.1578 10.614 40.2512L14.072 49.3092C14.0907 49.3652 14.1 49.4165 14.1 49.4632C14.1 49.5378 14.072 49.6032 14.016 49.6592C13.96 49.7152 13.8947 49.7432 13.82 49.7432H13.106C12.994 49.7432 12.91 49.7152 12.854 49.6592C12.8073 49.6032 12.7747 49.5518 12.756 49.5052L11.986 47.5172H7.394L6.624 49.5052C6.61467 49.5518 6.582 49.6032 6.526 49.6592C6.47 49.7152 6.386 49.7432 6.274 49.7432H5.56ZM7.8 46.3132H11.58L9.69 41.3432L7.8 46.3132ZM15.9189 49.7432C15.8162 49.7432 15.7369 49.7152 15.6809 49.6592C15.6249 49.5938 15.5969 49.5145 15.5969 49.4212V40.2792C15.5969 40.1765 15.6249 40.0972 15.6809 40.0412C15.7369 39.9758 15.8162 39.9432 15.9189 39.9432H19.3349C20.3896 39.9432 21.2249 40.1905 21.8409 40.6852C22.4569 41.1798 22.7649 41.9125 22.7649 42.8832C22.7649 43.6018 22.5829 44.1898 22.2189 44.6472C21.8642 45.0952 21.3789 45.4078 20.7629 45.5852L22.9189 49.3092C22.9469 49.3652 22.9609 49.4165 22.9609 49.4632C22.9609 49.5378 22.9282 49.6032 22.8629 49.6592C22.8069 49.7152 22.7416 49.7432 22.6669 49.7432H21.9949C21.8362 49.7432 21.7196 49.7012 21.6449 49.6172C21.5702 49.5332 21.5049 49.4492 21.4489 49.3652L19.4189 45.8092H16.9689V49.4212C16.9689 49.5145 16.9362 49.5938 16.8709 49.6592C16.8149 49.7152 16.7356 49.7432 16.6329 49.7432H15.9189ZM16.9689 44.6192H19.2789C19.9789 44.6192 20.5016 44.4745 20.8469 44.1852C21.1922 43.8865 21.3649 43.4478 21.3649 42.8692C21.3649 42.2998 21.1922 41.8658 20.8469 41.5672C20.5109 41.2685 19.9882 41.1192 19.2789 41.1192H16.9689V44.6192ZM28.2851 49.8832C27.4264 49.8832 26.7124 49.7245 26.1431 49.4072C25.5831 49.0898 25.1584 48.6465 24.8691 48.0772C24.5797 47.5078 24.4211 46.8452 24.3931 46.0892C24.3837 45.7065 24.3791 45.2958 24.3791 44.8572C24.3791 44.4185 24.3837 43.9985 24.3931 43.5972C24.4211 42.8412 24.5797 42.1785 24.8691 41.6092C25.1584 41.0398 25.5831 40.5965 26.1431 40.2792C26.7124 39.9618 27.4264 39.8032 28.2851 39.8032C28.9291 39.8032 29.4937 39.8918 29.9791 40.0692C30.4644 40.2465 30.8657 40.4845 31.1831 40.7832C31.5097 41.0818 31.7571 41.4178 31.9251 41.7912C32.0931 42.1552 32.1864 42.5332 32.2051 42.9252C32.2144 43.0092 32.1864 43.0792 32.1211 43.1352C32.0651 43.1912 31.9951 43.2192 31.9111 43.2192H31.1411C31.0571 43.2192 30.9824 43.1958 30.9171 43.1492C30.8611 43.1025 30.8191 43.0185 30.7911 42.8972C30.6324 42.1692 30.3337 41.6698 29.8951 41.3992C29.4657 41.1285 28.9244 40.9932 28.2711 40.9932C27.5244 40.9932 26.9317 41.2078 26.4931 41.6372C26.0544 42.0572 25.8164 42.7338 25.7791 43.6672C25.7511 44.4325 25.7511 45.2165 25.7791 46.0192C25.8164 46.9525 26.0544 47.6338 26.4931 48.0632C26.9317 48.4832 27.5244 48.6932 28.2711 48.6932C28.9244 48.6932 29.4657 48.5578 29.8951 48.2872C30.3337 48.0165 30.6324 47.5172 30.7911 46.7892C30.8191 46.6678 30.8611 46.5838 30.9171 46.5372C30.9824 46.4905 31.0571 46.4672 31.1411 46.4672H31.9111C31.9951 46.4672 32.0651 46.4952 32.1211 46.5512C32.1864 46.6072 32.2144 46.6772 32.2051 46.7612C32.1864 47.1532 32.0931 47.5358 31.9251 47.9092C31.7571 48.2732 31.5097 48.6045 31.1831 48.9032C30.8657 49.2018 30.4644 49.4398 29.9791 49.6172C29.4937 49.7945 28.9291 49.8832 28.2851 49.8832ZM36.5453 49.7432C36.4519 49.7432 36.3726 49.7152 36.3073 49.6592C36.2513 49.5938 36.2233 49.5145 36.2233 49.4212V41.1892H33.5353C33.4419 41.1892 33.3626 41.1612 33.2973 41.1052C33.2413 41.0398 33.2133 40.9605 33.2133 40.8672V40.2792C33.2133 40.1765 33.2413 40.0972 33.2973 40.0412C33.3626 39.9758 33.4419 39.9432 33.5353 39.9432H40.2833C40.3859 39.9432 40.4653 39.9758 40.5213 40.0412C40.5866 40.0972 40.6193 40.1765 40.6193 40.2792V40.8672C40.6193 40.9605 40.5866 41.0398 40.5213 41.1052C40.4653 41.1612 40.3859 41.1892 40.2833 41.1892H37.6093V49.4212C37.6093 49.5145 37.5766 49.5938 37.5113 49.6592C37.4553 49.7152 37.3759 49.7432 37.2733 49.7432H36.5453Z" fill="#91795C"/>
<path d="M8.84314 4.81982L23.0144 27.2987C11.8872 33.1821 1.31953 19.1881 8.84314 4.81982Z" fill="white" stroke="#91795C" stroke-width="3"/>
<path d="M20.5316 3.73633L27.6914 28.2072C15.5781 31.1797 9.47526 15.5417 20.5316 3.73633Z" fill="white" stroke="#91795C" stroke-width="3"/>
<path d="M33.2245 2.74316V28.7432C20.6416 28.7432 19.1612 11.7565 33.2245 2.74316Z" fill="white" stroke="#91795C" stroke-width="3"/>
</svg>
